<svg xmlns="http://www.w3.org/2000/svg" viewBox="0 0 280.34 189.447">
  <title>logo</title>
  <g id="Layer_2" data-name="Layer 2">
    <rect x="15.72" y="148.324" width="116.061" height="29.378" style="fill: #1d1d1b"/>
    <path d="M105.28,30.659V89.771c0,15.356-12.974,27.8-28.978,27.8H69.6c-16,0-28.978-12.449-28.978-27.8V30.659" style="fill: none;stroke: #1d1d1b;stroke-miterlimit: 10;stroke-width: 6px"/>
    <path d="M119.731,17.213V94.747c0,22.219-18.773,40.232-41.93,40.232H68.1c-23.157,0-41.93-18.013-41.93-40.232V73.213" style="fill: none;stroke: #1d1d1b;stroke-miterlimit: 10;stroke-width: 8px"/>
    <rect x="131.598" y="16.851" width="130.043" height="131.745" style="fill: #1d1d1b"/>
    <g>
      <line x1="162.171" y1="31.518" x2="199.856" y2="69.203" style="fill: none;stroke: #fff;stroke-miterlimit: 10;stroke-width: 6px"/>
      <line x1="244.914" y1="31.978" x2="207.229" y2="69.663" style="fill: none;stroke: #fff;stroke-miterlimit: 10;stroke-width: 6px"/>
      <line x1="244.914" y1="114.376" x2="207.229" y2="76.69" style="fill: none;stroke: #fff;stroke-miterlimit: 10;stroke-width: 6px"/>
      <line x1="162.171" y1="113.916" x2="199.856" y2="76.231" style="fill: none;stroke: #fff;stroke-miterlimit: 10;stroke-width: 6px"/>
    </g>
    <path d="M144.383,25.957V135.574c90.234,0,108.128.49,108.128.49" style="fill: none;stroke: #fff;stroke-miterlimit: 10;stroke-width: 8px"/>
    <g>
      <path d="M22.983,152.516h3.228v11.47c0,4.881-2.362,6.509-5.852,6.509a8.779,8.779,0,0,1-2.73-.42l.394-2.6a6.218,6.218,0,0,0,2,.315c1.837,0,2.965-.84,2.965-3.911Z" style="fill: #fff"/>
      <path d="M33.218,164.72c.079,2.31,1.864,3.307,3.937,3.307a10.3,10.3,0,0,0,3.543-.577l.472,2.205a11.489,11.489,0,0,1-4.462.813c-4.146,0-6.586-2.546-6.586-6.457,0-3.543,2.151-6.876,6.246-6.876,4.146,0,5.511,3.412,5.511,6.221a7.881,7.881,0,0,1-.1,1.364Zm5.616-2.257c.027-1.18-.5-3.123-2.65-3.123-1.995,0-2.835,1.811-2.966,3.123Z" style="fill: #fff"/>
      <path d="M54.028,170.206V159.838H49.382v10.368H46.154V159.838H44.421v-2.414h1.733v-.262a5.923,5.923,0,0,1,1.443-4.226,4.8,4.8,0,0,1,3.6-1.311,4.507,4.507,0,0,1,1.759.367l-.526,2.414a2.7,2.7,0,0,0-1.18-.262c-1.47,0-1.89,1.234-1.89,2.834v.446h4.672v-.551a5.967,5.967,0,0,1,1.548-4.357,4.91,4.91,0,0,1,3.359-1.233,6.819,6.819,0,0,1,2.047.315l-.235,2.493a3.661,3.661,0,0,0-1.366-.236c-1.6,0-2.152,1.338-2.152,2.913v.656h2.809v2.414H57.255v10.368Z" style="fill: #fff"/>
      <path d="M70.243,152.516h3.228V167.5h7.27v2.7h-10.5Z" style="fill: #fff"/>
      <path d="M95.463,166.374c0,1.522.053,2.782.106,3.832H92.76L92.6,168.29h-.079A4.679,4.679,0,0,1,88.4,170.5c-2.31,0-4.436-1.392-4.436-5.565v-7.506H87.2v6.956c0,2.125.681,3.49,2.387,3.49a2.624,2.624,0,0,0,2.467-1.733,2.318,2.318,0,0,0,.185-1v-7.716h3.227Z" style="fill: #fff"/>
      <path d="M100.263,161.23c0-1.47-.053-2.7-.105-3.806h2.808l.158,1.916h.079a4.69,4.69,0,0,1,4.093-2.205c2.232,0,4.541,1.444,4.541,5.486v7.585h-3.228v-7.218c0-1.837-.683-3.228-2.441-3.228a2.707,2.707,0,0,0-2.519,1.89,2.968,2.968,0,0,0-.158,1.023v7.533h-3.228Z" style="fill: #fff"/>
      <path d="M128.16,168.342c0,2.677-.552,4.593-1.89,5.8a7.306,7.306,0,0,1-4.935,1.549,9.337,9.337,0,0,1-4.461-1.023l.708-2.442a7.714,7.714,0,0,0,3.727.972c2.1,0,3.675-1.1,3.675-3.859v-1.1h-.053a4.28,4.28,0,0,1-3.726,1.89c-3.176,0-5.433-2.624-5.433-6.247,0-4.2,2.729-6.745,5.8-6.745a3.994,3.994,0,0,1,3.7,2h.053l.131-1.706h2.808c-.053.867-.1,1.916-.1,3.674Zm-3.229-5.8a3.042,3.042,0,0,0-.1-.867A2.681,2.681,0,0,0,122.2,159.6c-1.811,0-3.15,1.574-3.15,4.173,0,2.178,1.1,3.937,3.123,3.937a2.75,2.75,0,0,0,2.625-1.969,3.915,3.915,0,0,0,.131-1.128Z" style="fill: #fff"/>
    </g>
    <g>
      <path d="M138.984,154.218v10.315c0,3.465,1.443,5.065,3.622,5.065,2.336,0,3.726-1.6,3.726-5.065V154.218h3.229v10.105c0,5.459-2.809,7.874-7.061,7.874-4.093,0-6.745-2.284-6.745-7.848V154.218Z" style="fill: #1d1d1b"/>
      <path d="M164.019,171.908l-1.89-3.517c-.76-1.365-1.259-2.309-1.784-3.333h-.053c-.419,1.024-.892,1.968-1.6,3.333l-1.759,3.517h-3.7l5.248-8.949-5.065-8.741h3.727l1.916,3.649c.577,1.1,1,1.968,1.443,2.966h.079c.472-1.1.839-1.89,1.391-2.966l1.89-3.649h3.7l-5.17,8.635,5.38,9.055Z" style="fill: #1d1d1b"/>
      <path d="M178.213,154.455a36.374,36.374,0,0,1,5.145-.367c3.307,0,5.563.682,7.19,2.046a7.886,7.886,0,0,1,2.783,6.509,9.119,9.119,0,0,1-2.756,7.034c-1.758,1.6-4.567,2.414-8,2.414a35.79,35.79,0,0,1-4.357-.236Zm3.229,15.012a11.976,11.976,0,0,0,1.784.079c4.2.026,6.692-2.31,6.692-6.8.027-3.885-2.23-6.142-6.272-6.142a10.509,10.509,0,0,0-2.2.184Z" style="fill: #1d1d1b"/>
      <path d="M199.6,166.422c.078,2.31,1.863,3.307,3.937,3.307a10.3,10.3,0,0,0,3.543-.577l.472,2.205a11.483,11.483,0,0,1-4.462.814c-4.146,0-6.587-2.546-6.587-6.458,0-3.542,2.152-6.875,6.246-6.875,4.147,0,5.512,3.412,5.512,6.22a7.984,7.984,0,0,1-.1,1.364Zm5.616-2.256c.027-1.181-.5-3.123-2.65-3.123-2,0-2.835,1.81-2.966,3.123Z" style="fill: #1d1d1b"/>
      <path d="M212.038,168.916a7,7,0,0,0,3.254.945c1.417,0,2.047-.6,2.047-1.443,0-.867-.524-1.287-2.1-1.865-2.493-.84-3.517-2.2-3.517-3.726,0-2.257,1.863-3.989,4.829-3.989a7.374,7.374,0,0,1,3.412.761l-.656,2.257a5.648,5.648,0,0,0-2.7-.735c-1.155,0-1.785.578-1.785,1.365,0,.813.6,1.181,2.231,1.784,2.335.815,3.385,1.995,3.411,3.885,0,2.336-1.81,4.016-5.2,4.016a8.249,8.249,0,0,1-3.885-.893Z" style="fill: #1d1d1b"/>
      <path d="M227.861,155.557a1.811,1.811,0,1,1-1.811-1.759A1.726,1.726,0,0,1,227.861,155.557Zm-3.438,16.351V159.127h3.228v12.781Z" style="fill: #1d1d1b"/>
      <path d="M244.028,170.045c0,2.676-.552,4.592-1.89,5.8a7.3,7.3,0,0,1-4.934,1.549,9.341,9.341,0,0,1-4.462-1.023l.709-2.442a7.706,7.706,0,0,0,3.726.972c2.1,0,3.675-1.1,3.675-3.858v-1.1H240.8a4.279,4.279,0,0,1-3.726,1.89c-3.176,0-5.433-2.624-5.433-6.246,0-4.2,2.73-6.745,5.8-6.745a3.99,3.99,0,0,1,3.7,2h.053l.132-1.706h2.807c-.052.866-.1,1.916-.1,3.673Zm-3.229-5.8a2.994,2.994,0,0,0-.105-.866,2.68,2.68,0,0,0-2.624-2.074c-1.811,0-3.15,1.575-3.15,4.173,0,2.178,1.1,3.937,3.123,3.937a2.749,2.749,0,0,0,2.625-1.969,3.915,3.915,0,0,0,.131-1.128Z" style="fill: #1d1d1b"/>
      <path d="M248.7,162.932c0-1.469-.053-2.7-.106-3.8H251.4l.157,1.916h.079a4.692,4.692,0,0,1,4.094-2.205c2.231,0,4.541,1.443,4.541,5.485v7.585h-3.229V164.69c0-1.837-.682-3.227-2.44-3.227a2.708,2.708,0,0,0-2.52,1.889,2.994,2.994,0,0,0-.158,1.024v7.532H248.7Z" style="fill: #1d1d1b"/>
    </g>
  </g>
</svg>
